#Comment line ignore any data following # character 
#Hierarchical Translation and Rotation (.htr) file 
[Header]	
#Header keywords are followed by a single value 
FileType HTR		#Single word string
DataType HTRS		#Translation followed by rotation and scale data
FileVersion 1		#integer
NumSegments 64		#integer
NumFrames 3		#integer
DataFrameRate 30		#integer, data frame rate in this file
EulerRotationOrder ZYX
CalibrationUnits mm
RotationUnits Degrees
GlobalAxisofGravity Y
BoneLengthAxis Y
ScaleFactor 1.00
[SegmentNames&Hierarchy]
#CHILD	PARENT
Pinger_Root GLOBAL
Pelvis Pinger_Root
L_Hip Pelvis
R_Hip Pelvis
Rear_Leg01 Pelvis
Spine1 Pelvis
L_Leg01 L_Hip
L_Leg02 L_Leg01
L_Leg03 L_Leg02
L_Foot L_Leg03
L_Toe1_01 L_Foot
L_Toe2_01 L_Foot
L_Toe3_01 L_Foot
planeAlignerLeft L_Foot
L_Toe1_02 L_Toe1_01
L_Toe1_03 L_Toe1_02
L_Toe2_02 L_Toe2_01
L_Toe2_03 L_Toe2_02
L_Toe3_02 L_Toe3_01
L_Toe3_03 L_Toe3_02
planeLockWeightLeft planeAlignerLeft
R_Leg01 R_Hip
R_Leg02 R_Leg01
R_Leg03 R_Leg02
R_Foot R_Leg03
planeAlignerRight R_Foot
R_Toe1_01 R_Foot
R_Toe2_01 R_Foot
R_Toe3_01 R_Foot
planeLockWeightRight planeAlignerRight
R_Toe1_02 R_Toe1_01
R_Toe1_03 R_Toe1_02
R_Toe2_02 R_Toe2_01
R_Toe2_03 R_Toe2_02
R_Toe3_02 R_Toe3_01
R_Toe3_03 R_Toe3_02
Rear_Leg02 Rear_Leg01
Rear_Leg03 Rear_Leg02
Rear_Leg04 Rear_Leg03
Rear_Foot Rear_Leg04
planeAlignerCenter Rear_Foot
Rear_Toe1_01 Rear_Foot
Rear_Toe2_01 Rear_Foot
Rear_Toe3_01 Rear_Foot
planeLockWeightCenter planeAlignerCenter
Rear_Toe1_02 Rear_Toe1_01
Rear_Toe1_03 Rear_Toe1_02
Rear_Toe2_02 Rear_Toe2_01
Rear_Toe2_03 Rear_Toe2_02
Rear_Toe3_02 Rear_Toe3_01
Rear_Toe3_03 Rear_Toe3_02
Back_Bone Spine1
Head Spine1
Motor_Bone Back_Bone
Ping_Mechanism Back_Bone
BN_LookIK Head
bottomMouth Head
L_Mouth01 Head
L_mouthFront Head
mouthGun Head
R_Mouth01 Head
R_mouthFront Head
TopMouth Head
weapon_bone Head
[BasePosition]
#SegmentName Tx, Ty, Tz, Rx, Ry, Rz, BoneLength
Pinger_Root 0.000000 0.000000 0.000000 -90.000000 0.000000 0.000000 10.000000 
Pelvis 0.000000 0.000000 0.000000 0.000000 0.000000 0.000000 10.000000 
L_Hip 0.000000 0.000000 0.000000 0.000000 0.000000 0.000000 10.000000 
R_Hip 0.000000 0.000000 0.000000 0.000000 0.000000 0.000000 10.000000 
Rear_Leg01 0.000000 0.000000 0.000000 0.000000 0.000000 0.000000 10.000000 
Spine1 0.000000 0.000000 0.000000 0.000000 0.000000 0.000000 10.000000 
L_Leg01 0.000000 0.000000 0.000000 0.000000 0.000000 0.000000 10.000000 
L_Leg02 0.000000 0.000000 0.000000 0.000000 0.000000 0.000000 10.000000 
L_Leg03 0.000000 0.000000 0.000000 0.000000 0.000000 0.000000 10.000000 
L_Foot 0.000000 0.000000 0.000000 0.000000 0.000000 0.000000 10.000000 
L_Toe1_01 0.000000 0.000000 0.000000 0.000000 0.000000 0.000000 10.000000 
L_Toe2_01 0.000000 0.000000 0.000000 0.000000 0.000000 0.000000 10.000000 
L_Toe3_01 0.000000 0.000000 0.000000 0.000000 0.000000 0.000000 10.000000 
planeAlignerLeft 0.000000 0.000000 0.000000 0.000000 0.000000 0.000000 10.000000 
L_Toe1_02 0.000000 0.000000 0.000000 0.000000 0.000000 0.000000 10.000000 
L_Toe1_03 0.000000 0.000000 0.000000 0.000000 0.000000 0.000000 10.000000 
L_Toe2_02 0.000000 0.000000 0.000000 0.000000 0.000000 0.000000 10.000000 
L_Toe2_03 0.000000 0.000000 0.000000 0.000000 0.000000 0.000000 10.000000 
L_Toe3_02 0.000000 0.000000 0.000000 0.000000 0.000000 0.000000 10.000000 
L_Toe3_03 0.000000 0.000000 0.000000 0.000000 0.000000 0.000000 10.000000 
planeLockWeightLeft 0.000000 0.000000 0.000000 0.000000 0.000000 0.000000 10.000000 
R_Leg01 0.000000 0.000000 0.000000 0.000000 0.000000 0.000000 10.000000 
R_Leg02 0.000000 0.000000 0.000000 0.000000 0.000000 0.000000 10.000000 
R_Leg03 0.000000 0.000000 0.000000 0.000000 0.000000 0.000000 10.000000 
R_Foot 0.000000 0.000000 0.000000 0.000000 0.000000 0.000000 10.000000 
planeAlignerRight 0.000000 0.000000 0.000000 0.000000 0.000000 0.000000 10.000000 
R_Toe1_01 0.000000 0.000000 0.000000 0.000000 0.000000 0.000000 10.000000 
R_Toe2_01 0.000000 0.000000 0.000000 0.000000 0.000000 0.000000 10.000000 
R_Toe3_01 0.000000 0.000000 0.000000 0.000000 0.000000 0.000000 10.000000 
planeLockWeightRight 0.000000 0.000000 0.000000 0.000000 0.000000 0.000000 10.000000 
R_Toe1_02 0.000000 0.000000 0.000000 0.000000 0.000000 0.000000 10.000000 
R_Toe1_03 0.000000 0.000000 0.000000 0.000000 0.000000 0.000000 10.000000 
R_Toe2_02 0.000000 0.000000 0.000000 0.000000 0.000000 0.000000 10.000000 
R_Toe2_03 0.000000 0.000000 0.000000 0.000000 0.000000 0.000000 10.000000 
R_Toe3_02 0.000000 0.000000 0.000000 0.000000 0.000000 0.000000 10.000000 
R_Toe3_03 0.000000 0.000000 0.000000 0.000000 0.000000 0.000000 10.000000 
Rear_Leg02 0.000000 0.000000 0.000000 0.000000 0.000000 0.000000 10.000000 
Rear_Leg03 0.000000 0.000000 0.000000 0.000000 0.000000 0.000000 10.000000 
Rear_Leg04 0.000000 0.000000 0.000000 0.000000 0.000000 0.000000 10.000000 
Rear_Foot 0.000000 0.000000 0.000000 0.000000 0.000000 0.000000 10.000000 
planeAlignerCenter 0.000000 0.000000 0.000000 0.000000 0.000000 0.000000 10.000000 
Rear_Toe1_01 0.000000 0.000000 0.000000 0.000000 0.000000 0.000000 10.000000 
Rear_Toe2_01 0.000000 0.000000 0.000000 0.000000 0.000000 0.000000 10.000000 
Rear_Toe3_01 0.000000 0.000000 0.000000 0.000000 0.000000 0.000000 10.000000 
planeLockWeightCenter 0.000000 0.000000 0.000000 0.000000 0.000000 0.000000 10.000000 
Rear_Toe1_02 0.000000 0.000000 0.000000 0.000000 0.000000 0.000000 10.000000 
Rear_Toe1_03 0.000000 0.000000 0.000000 0.000000 0.000000 0.000000 10.000000 
Rear_Toe2_02 0.000000 0.000000 0.000000 0.000000 0.000000 0.000000 10.000000 
Rear_Toe2_03 0.000000 0.000000 0.000000 0.000000 0.000000 0.000000 10.000000 
Rear_Toe3_02 0.000000 0.000000 0.000000 0.000000 0.000000 0.000000 10.000000 
Rear_Toe3_03 0.000000 0.000000 0.000000 0.000000 0.000000 0.000000 10.000000 
Back_Bone 0.000000 0.000000 0.000000 0.000000 0.000000 0.000000 10.000000 
Head 0.000000 0.000000 0.000000 0.000000 0.000000 0.000000 10.000000 
Motor_Bone 0.000000 0.000000 0.000000 0.000000 0.000000 0.000000 10.000000 
Ping_Mechanism 0.000000 0.000000 0.000000 0.000000 0.000000 0.000000 10.000000 
BN_LookIK 0.000000 0.000000 0.000000 0.000000 0.000000 0.000000 10.000000 
bottomMouth 0.000000 0.000000 0.000000 0.000000 0.000000 0.000000 10.000000 
L_Mouth01 0.000000 0.000000 0.000000 0.000000 0.000000 0.000000 10.000000 
L_mouthFront 0.000000 0.000000 0.000000 0.000000 0.000000 0.000000 10.000000 
mouthGun 0.000000 0.000000 0.000000 0.000000 0.000000 0.000000 10.000000 
R_Mouth01 0.000000 0.000000 0.000000 0.000000 0.000000 0.000000 10.000000 
R_mouthFront 0.000000 0.000000 0.000000 0.000000 0.000000 0.000000 10.000000 
TopMouth 0.000000 0.000000 0.000000 0.000000 0.000000 0.000000 10.000000 
weapon_bone 0.000000 0.000000 0.000000 0.000000 0.000000 0.000000 10.000000 
#Beginning of Data. Separated by tabs
#Fr	Tx	Ty	Tz	Rx	Ry	Rz	SF
[Pinger_Root]
68 0.000000 0.000000 0.000000 -0.000075 -0.000000 -0.000020 0.000000
69 0.000000 0.000000 0.000000 -0.000075 -0.000000 -0.000020 0.000000
70 0.000000 0.000000 0.000000 -0.000075 -0.000000 -0.000020 0.000000
[Pelvis]
68 311.981628 1427.159424 5009.104492 52.818756 -81.248817 -45.129528 5217.781738
69 300.378937 1440.672363 5008.168457 51.634892 -81.882721 -43.593880 5219.915527
70 291.723846 1456.366089 5005.655273 45.979374 -83.022614 -37.818356 5221.368652
[L_Hip]
68 5.766392 125.831482 872.656799 -178.253326 -81.787712 87.381294 881.701050
69 5.766392 125.831482 872.656799 -178.253311 -81.787758 87.381340 881.701050
70 5.766392 125.831482 872.656799 -178.253311 -81.787712 87.381248 881.701050
[R_Hip]
68 5.765438 125.836372 -872.654907 -1.733757 81.785179 87.374352 881.699829
69 5.765438 125.836372 -872.654907 -1.733519 81.785133 87.374222 881.699829
70 5.765438 125.836372 -872.654907 -1.733293 81.784988 87.374023 881.699829
[Rear_Leg01]
68 -192.298416 -925.602966 -0.001907 156.285477 11.496874 -124.345238 945.367432
69 -192.298416 -925.602966 -0.001907 156.257156 10.960523 -125.382263 945.367432
70 -192.298416 -925.602966 -0.001907 156.118347 10.664042 -127.184151 945.367432
[Spine1]
68 290.604584 5.007505 0.000477 0.248995 -2.050017 22.529974 290.647736
69 290.604584 5.007505 0.000477 0.544233 -1.708055 22.878555 290.647736
70 290.604584 5.007505 0.000477 0.961262 -1.502834 22.697418 290.647736
[L_Leg01]
68 761.932007 -0.002384 -0.069261 125.116470 -17.159328 -103.947304 761.932068
69 761.932007 -0.002384 -0.069261 126.710350 -20.039745 -106.037216 761.932068
70 761.932007 -0.002384 -0.069261 128.138565 -23.154428 -107.767029 761.932068
[L_Leg02]
68 1441.140503 -0.000954 -0.000715 -1.465380 0.591363 -98.685982 1441.140503
69 1441.140503 -0.000954 -0.000715 -1.430394 0.619404 -102.130783 1441.140503
70 1441.140503 -0.000954 -0.000715 -1.392763 0.635531 -105.058105 1441.140503
[L_Leg03]
68 1686.963989 -0.000715 -0.000954 0.043718 -0.010064 97.977371 1686.963989
69 1686.963989 -0.000715 -0.000954 0.050797 -0.010068 96.898041 1686.963989
70 1686.963989 -0.000715 -0.000954 0.054179 -0.013361 96.036049 1686.963989
[L_Foot]
68 3041.570068 -30.715107 11.297464 7.119689 15.333160 75.336342 3041.746094
69 3041.570068 -30.715107 11.297464 7.351238 15.828237 76.736748 3041.746094
70 3041.570068 -30.715107 11.297464 7.582376 16.117048 77.996574 3041.746094
[L_Toe1_01]
68 -188.216690 -224.732346 -21.137953 103.319359 -4.510827 -176.402298 293.899567
69 -188.216690 -224.732346 -21.137953 103.304504 -4.579378 -176.145233 293.899567
70 -188.216690 -224.732346 -21.137953 103.289299 -4.647859 -175.888107 293.899567
[L_Toe2_01]
68 200.746536 -219.926590 148.838394 -86.695305 -22.014839 -53.171719 332.896027
69 200.746536 -219.926590 148.838394 -86.628242 -22.023958 -53.324078 332.896027
70 200.746536 -219.926590 148.838394 -86.561142 -22.032907 -53.476433 332.896027
[L_Toe3_01]
68 188.832520 -219.859131 -191.078659 -116.161407 8.272565 -67.236824 347.140900
69 188.832520 -219.859131 -191.078659 -116.164703 8.183559 -67.421066 347.140900
70 188.832520 -219.859131 -191.078659 -116.167694 8.094547 -67.605232 347.140900
[planeAlignerLeft]
68 0.812531 -811.448792 -0.314951 0.000000 -90.000000 -90.001900 811.449280
69 0.812531 -811.448792 -0.314951 0.000000 -90.000000 -90.001900 811.449280
70 0.812531 -811.448792 -0.314951 0.000000 -90.000000 -90.001900 811.449280
[L_Toe1_02]
68 413.761139 0.000477 0.000000 0.001398 -24.144810 0.001398 413.761139
69 413.761139 0.000477 0.000000 0.001398 -24.171547 0.001398 413.761139
70 413.761139 0.000477 0.000000 0.001398 -24.198284 0.001398 413.761139
[L_Toe1_03]
68 464.317322 0.000358 -0.000089 0.007717 72.505287 0.007717 464.317322
69 464.317322 0.000358 -0.000089 0.007544 72.099953 0.007544 464.317322
70 464.317322 0.000358 -0.000089 0.007459 71.895309 0.007459 464.317322
[L_Toe2_02]
68 342.235809 -0.000477 0.000238 -0.008597 -64.779823 0.007419 342.235809
69 342.235809 -0.000477 0.000238 -0.007890 -64.720039 0.006314 342.235809
70 342.235809 -0.000477 0.000238 -0.007187 -64.660271 0.005213 342.235809
[L_Toe2_03]
68 420.210846 -0.000715 0.000000 -0.001385 69.064217 -0.004941 420.210846
69 420.210846 -0.000715 0.000000 -0.001365 68.930305 -0.004922 420.210846
70 420.210846 -0.000715 0.000000 -0.001345 68.796379 -0.004903 420.210846
[L_Toe3_02]
68 329.270111 0.000954 0.000000 0.001183 -75.540100 0.001183 329.270111
69 329.270111 0.000954 0.000000 0.001183 -75.461296 0.001183 329.270111
70 329.270111 0.000954 0.000000 0.001183 -75.382454 0.001183 329.270111
[L_Toe3_03]
68 439.137451 -0.001907 0.000954 0.031473 85.725937 0.031473 439.137451
69 439.137451 -0.001907 0.000954 0.030435 85.580086 0.030435 439.137451
70 439.137451 -0.001907 0.000954 0.029462 85.434128 0.029462 439.137451
[planeLockWeightLeft]
68 -0.000954 0.000238 -0.000305 -0.011826 -0.004376 0.005620 0.001029
69 -0.000954 0.000238 -0.000305 -0.011826 -0.004376 0.005620 0.001029
70 -0.000954 0.000238 -0.000305 -0.011826 -0.004376 0.005620 0.001029
[R_Leg01]
68 761.455627 -0.001907 -0.000358 92.159470 21.139137 71.108871 761.455688
69 761.455627 -0.001907 -0.000358 92.928070 17.618841 70.976479 761.455688
70 761.455627 -0.001907 -0.000358 93.730614 13.603027 70.721153 761.455688
[R_Leg02]
68 1441.140625 0.000000 -0.000238 0.474206 -0.107156 -83.861511 1441.140625
69 1441.140625 0.000000 -0.000238 0.295930 -0.051439 -86.785851 1441.140625
70 1441.140625 0.000000 -0.000238 0.220232 -0.022988 -89.553497 1441.140625
[R_Leg03]
68 1686.963989 0.000954 0.001431 -0.061970 0.014090 93.409775 1686.963989
69 1686.963989 0.000954 0.001431 -0.067430 0.014767 91.323547 1686.963989
70 1686.963989 0.000954 0.001431 -0.074640 0.013712 89.578812 1686.963989
[R_Foot]
68 3041.560059 -30.531288 -11.204481 50.135895 -69.129509 44.011444 3041.734131
69 3041.560059 -30.531288 -11.204481 49.749496 -68.779282 46.368324 3041.734131
70 3041.560059 -30.531288 -11.204481 49.478848 -68.424950 48.357800 3041.734131
[planeAlignerRight]
68 -0.635147 -812.270569 -0.364304 0.000000 -89.960434 -90.005180 812.270874
69 -0.635147 -812.270569 -0.364304 0.000000 -89.960434 -90.005180 812.270874
70 -0.635147 -812.270569 -0.364304 0.000000 -89.960434 -90.005180 812.270874
[R_Toe1_01]
68 -188.383347 -224.864899 21.052242 90.760185 1.739385 -159.575912 294.101532
69 -188.383347 -224.864899 21.052242 90.719231 1.914833 -159.891190 294.101532
70 -188.383347 -224.864899 21.052242 90.689453 1.977258 -159.997726 294.101532
[R_Toe2_01]
68 200.637817 -220.002121 -148.787384 -103.132339 11.238175 -49.869495 332.857574
69 200.637817 -220.002121 -148.787384 -103.141441 11.345905 -49.783421 332.857574
70 200.637817 -220.002121 -148.787384 -103.150368 11.453646 -49.697323 332.857574
[R_Toe3_01]
68 188.606735 -220.092957 191.126343 -72.662544 -14.446832 -51.987278 347.192566
69 188.606735 -220.092957 191.126343 -72.820175 -14.217785 -51.671871 347.192566
70 188.606735 -220.092957 191.126343 -72.861191 -14.153212 -51.583645 347.192566
[planeLockWeightRight]
68 -0.000477 0.000000 0.000000 -0.011823 -0.004379 -0.000027 0.000477
69 -0.000477 0.000000 0.000000 -0.011823 -0.004379 -0.000027 0.000477
70 -0.000477 0.000000 0.000000 -0.011823 -0.004379 -0.000027 0.000477
[R_Toe1_02]
68 413.762085 0.000477 -0.000119 0.001404 -23.471127 0.001404 413.762085
69 413.762085 0.000477 -0.000119 0.001404 -23.377693 0.001404 413.762085
70 413.762085 0.000477 -0.000119 0.001405 -23.284258 0.001405 413.762085
[R_Toe1_03]
68 464.317810 0.000000 0.001088 0.009785 76.222687 0.009785 464.317810
69 464.317810 0.000000 0.001088 0.010301 76.915787 0.010301 464.317810
70 464.317810 0.000000 0.001088 0.010493 77.155922 0.010493 464.317810
[R_Toe2_02]
68 342.234741 -0.000954 0.000238 -0.002341 -75.741508 -0.002341 342.234741
69 342.234741 -0.000954 0.000238 -0.002341 -75.665604 -0.002341 342.234741
70 342.234741 -0.000954 0.000238 -0.002342 -75.589676 -0.002342 342.234741
[R_Toe2_03]
68 420.210846 0.000715 -0.000268 -179.986649 84.324387 -179.990143 420.210846
69 420.210846 0.000715 -0.000268 -179.985641 84.778091 -179.989136 420.210846
70 420.210846 0.000715 -0.000268 -179.985138 84.977226 -179.988647 420.210846
[R_Toe3_02]
68 329.270355 -0.000477 -0.000954 0.001179 -79.471680 0.001179 329.270355
69 329.270355 -0.000477 -0.000954 0.001179 -79.457230 0.001179 329.270355
70 329.270355 -0.000477 -0.000954 0.001179 -79.442696 0.001179 329.270355
[R_Toe3_03]
68 439.137939 0.000238 0.001431 -179.993164 82.330978 -179.989655 439.137939
69 439.137939 0.000238 0.001431 -179.993179 82.311317 -179.989685 439.137939
70 439.137939 0.000238 0.001431 -179.993210 82.291588 -179.989700 439.137939
[Rear_Leg02]
68 1162.777710 -0.029802 0.005960 -1.087044 8.837708 -71.953873 1162.777710
69 1162.777710 -0.029802 0.005960 -1.044337 9.009993 -72.213051 1162.777710
70 1162.777710 -0.029802 0.005960 -0.917968 9.115492 -71.988663 1162.777710
[Rear_Leg03]
68 607.192505 -0.013351 -0.073195 0.006498 -0.002038 63.035046 607.192505
69 607.192505 -0.013351 -0.073195 0.006502 -0.002024 62.794594 607.192505
70 607.192505 -0.013351 -0.073195 0.006507 -0.002011 62.554131 607.192505
[Rear_Leg04]
68 995.874512 -0.020504 -0.011921 -0.040179 -0.016036 55.757477 995.874573
69 995.874512 -0.020504 -0.011921 -0.040136 -0.016144 55.449978 995.874573
70 995.874512 -0.020504 -0.011921 -0.040047 -0.016364 54.820427 995.874573
[Rear_Foot]
68 3096.176270 -0.067472 -0.041425 145.160217 75.573853 -34.090942 3096.176270
69 3096.176270 -0.067472 -0.041425 144.495911 75.611366 -34.421310 3096.176270
70 3096.176270 -0.067472 -0.041425 143.829025 75.647881 -34.754227 3096.176270
[planeAlignerCenter]
68 0.350077 0.966311 -838.790894 0.000009 0.000003 -179.999985 838.791565
69 0.350077 0.966311 -838.790894 0.000009 0.000003 -179.999985 838.791565
70 0.350077 0.966311 -838.790894 0.000009 0.000003 -179.999985 838.791565
[Rear_Toe1_01]
68 0.653352 83.966492 -371.173737 1.474290 12.421484 94.696228 380.553192
69 0.653352 83.966492 -371.173737 1.419422 12.459846 94.507454 380.553192
70 0.653352 83.966492 -371.173737 1.364416 12.498032 94.318588 380.553192
[Rear_Toe2_01]
68 178.200760 -294.826019 -362.060547 -2.239162 39.554226 -77.758354 499.765686
69 178.200760 -294.826019 -362.060547 -2.148185 39.615318 -77.508942 499.765686
70 178.200760 -294.826019 -362.060547 -2.056782 39.676098 -77.259155 499.765686
[Rear_Toe3_01]
68 -153.359680 -308.780914 -362.060852 -2.159451 40.074337 -116.221764 499.952881
69 -153.359680 -308.780914 -362.060852 -2.086576 40.104965 -116.001656 499.952881
70 -153.359680 -308.780914 -362.060852 -2.013507 40.135387 -115.781410 499.952881
[planeLockWeightCenter]
68 -0.000062 0.000238 0.000000 -0.011814 -0.004373 -0.000015 0.000246
69 -0.000062 0.000238 0.000000 -0.011814 -0.004373 -0.000015 0.000246
70 -0.000062 0.000238 0.000000 -0.011814 -0.004373 -0.000015 0.000246
[Rear_Toe1_02]
68 379.707825 0.194073 0.000477 -0.002645 -32.846313 -0.002645 379.707855
69 379.707825 0.194073 0.000477 -0.002645 -32.839283 -0.002645 379.707855
70 379.707825 0.194073 0.000477 -0.002646 -32.832268 -0.002646 379.707855
[Rear_Toe1_03]
68 500.129700 0.165701 0.000119 0.000000 89.960434 -0.003496 500.129761
69 500.129700 0.165701 0.000119 0.000000 89.905128 -0.003496 500.129761
70 500.129700 0.165701 0.000119 0.000000 89.846771 -0.003495 500.129761
[Rear_Toe2_02]
68 340.494507 0.000238 -0.000954 0.001174 -85.706001 0.001174 340.494507
69 340.494507 0.000238 -0.000954 0.001174 -85.646164 0.001174 340.494507
70 340.494507 0.000238 -0.000954 0.001174 -85.586601 0.001174 340.494507
[Rear_Toe2_03]
68 433.103577 0.000000 0.000238 179.992615 79.454674 179.991699 433.103546
69 433.103577 0.000000 0.000238 179.991714 79.620354 179.990936 433.103546
70 433.103577 0.000000 0.000238 179.990768 79.786041 179.990128 433.103546
[Rear_Toe3_02]
68 340.494141 -0.000358 -0.000477 0.001177 -81.816338 0.001177 340.494171
69 340.494141 -0.000358 -0.000477 0.001177 -81.908890 0.001177 340.494171
70 340.494141 -0.000358 -0.000477 0.001177 -82.001396 0.001177 340.494171
[Rear_Toe3_03]
68 433.103577 0.001431 -0.000238 -179.950974 88.702606 -179.947464 433.103546
69 433.103577 0.001431 -0.000238 -179.957458 88.512863 -179.953964 433.103546
70 433.103577 0.001431 -0.000238 -179.962463 88.323105 -179.958969 433.103546
[Back_Bone]
68 1312.175781 -701.934692 0.000954 -2.593611 2.195552 -83.662277 1488.125488
69 1312.175781 -701.934692 0.000954 -2.665196 2.004198 -83.807709 1488.125488
70 1312.175781 -701.934692 0.000954 -2.736288 1.812660 -83.952858 1488.125488
[Head]
68 1406.159424 809.709290 0.001431 -2.285842 3.077619 19.380833 1622.625488
69 1406.159424 809.709290 0.001431 -2.466341 2.324036 17.931585 1622.625488
70 1406.159424 809.709290 0.001431 -2.604736 1.763295 16.669214 1622.625488
[Motor_Bone]
68 1158.364380 -417.834747 0.000477 5.387144 -2.893412 -108.880936 1231.419434
69 1158.364380 -417.834747 0.000477 4.126854 -2.426543 -108.469009 1231.419434
70 1158.364380 -417.834747 0.000477 1.339404 -1.414253 -107.470444 1231.419434
[Ping_Mechanism]
68 1181.593872 -419.940796 24.857166 0.000103 -0.000053 82.120995 1254.245728
69 1184.588257 -420.994904 23.726265 0.000103 -0.000053 82.120995 1257.397705
70 1190.777954 -423.804626 22.936470 0.000103 -0.000053 82.120995 1264.155273
[BN_LookIK]
68 193.241119 1380.371704 -0.002861 0.000000 89.965736 -31.038179 1393.832153
69 193.241119 1380.371704 -0.002861 0.000000 89.965736 -31.038179 1393.832153
70 193.241119 1380.371704 -0.002861 0.000000 89.965736 -31.038179 1393.832153
[bottomMouth]
68 -435.092926 615.759399 -0.000954 -0.000022 0.000016 73.527184 753.966492
69 -435.092926 615.759399 -0.000954 -0.000022 0.000016 73.527184 753.966492
70 -435.092926 615.759399 -0.000954 -0.000022 0.000016 73.527184 753.966492
[L_Mouth01]
68 554.440979 7.658243 838.222046 150.204178 23.759130 109.605339 1005.027161
69 554.440979 7.658243 838.222046 150.204178 23.759130 109.605339 1005.027161
70 554.440979 7.658243 838.222046 150.204178 23.759130 109.605339 1005.027161
[L_mouthFront]
68 551.629089 934.514771 339.150421 0.000081 2.804060 79.119301 1136.941284
69 551.629089 934.514771 339.150421 0.000081 2.804060 79.119301 1136.941284
70 551.629089 934.514771 339.150421 0.000081 2.804060 79.119301 1136.941284
[mouthGun]
68 55.332661 1627.420898 0.000000 0.000023 0.000009 -11.038128 1628.361328
69 55.332661 1627.420898 0.000000 0.000023 0.000009 -11.038128 1628.361328
70 55.332661 1627.420898 0.000000 0.000023 0.000009 -11.038128 1628.361328
[R_Mouth01]
68 554.442383 7.659197 -838.223938 29.795891 -23.759109 109.605331 1005.029541
69 554.442383 7.659197 -838.223938 29.795891 -23.759109 109.605331 1005.029541
70 554.442383 7.659197 -838.223938 29.795891 -23.759109 109.605331 1005.029541
[R_mouthFront]
68 551.629089 934.514282 -339.151367 0.000029 -2.803930 79.119133 1136.941162
69 551.629089 934.514282 -339.151367 0.000029 -2.803930 79.119133 1136.941162
70 551.629089 934.514282 -339.151367 0.000029 -2.803930 79.119133 1136.941162
[TopMouth]
68 461.269867 -56.106091 -0.008583 -0.000059 -0.000268 92.025169 464.669525
69 461.269867 -56.106091 -0.008583 -0.000059 -0.000268 92.025169 464.669525
70 461.269867 -56.106091 -0.008583 -0.000059 -0.000268 92.025169 464.669525
[weapon_bone]
68 -987.239868 1448.372803 0.001431 0.000000 89.965736 -31.038221 1752.833740
69 -987.239868 1448.372803 0.001431 0.000000 89.965736 -31.038221 1752.833740
70 -987.239868 1448.372803 0.001431 0.000000 89.965736 -31.038221 1752.833740
